#!OML:ASF F:\VICON\USERDATA\INSTALL\rory3\rory3.ASF
:FULLY-SPECIFIED
:DEGREES
271
root 4.78983 17.0833 2.68303 10.042 -17.2853 -1.6162
lowerback 0.515944 0.85291 0.28761
upperback -3.98494 1.12992 -0.290574
thorax -4.38098 0.54315 -0.509096
lowerneck -11.2939 1.42257 -0.515068
upperneck 42.1805 2.01316 0.11177
head 17.3669 0.639582 0.457086
rclavicle 3.66633e-014 2.38542e-015
rhumerus 12.4647 11.3943 -28.4611
rradius 114.317
rwrist -43.8523
rhand -3.6171 -42.1152
rfingers 7.12502
rthumb 22.1216 -70.8697
lclavicle 3.66633e-014 2.38542e-015
lhumerus 20.5467 3.62231 22.705
lradius 91.8257
lwrist 64.7006
lhand -24.4576 -27.479
lfingers 7.12502
lthumb 2.03541 2.49106
rfemur -53.4571 -4.17336 15.1413
rtibia 34.6938
rfoot 35.9731 -5.98495
rtoes 0.36725
lfemur -25.349 1.8489 -29.0672
ltibia 34.0198
lfoot -17.2119 10.3413
ltoes 12.7186
272
root 4.79993 17.0984 2.72084 9.37384 -17.8343 -1.52803
lowerback 0.7046 1.04565 0.337742
upperback -3.62763 1.3891 -0.341417
thorax -4.11103 0.671745 -0.599758
lowerneck -11.5479 1.4201 -0.493549
upperneck 42.2024 2.05153 0.0122796
head 17.4486 0.644836 0.417521
rclavicle 8.90183e-015 -7.35503e-015
rhumerus 12.368 11.5847 -28.4228
rradius 114.389
rwrist -43.9075
rhand -3.57112 -42.5305
rfingers 7.12502
rthumb 22.1658 -71.2798
lclavicle 8.90183e-015 -7.35503e-015
lhumerus 20.4651 3.38112 23.1055
lradius 91.8189
lwrist 64.6961
lhand -24.3655 -29.0981
lfingers 7.12502
lthumb 2.12441 0.871025
rfemur -52.777 -3.82892 15.1196
rtibia 34.5898
rfoot 35.9152 -5.02155
rtoes -0.957826
lfemur -24.4263 1.95722 -29.2495
ltibia 33.9656
lfoot -17.4748 10.9187
ltoes 11.5699
273
root 4.78565 17.055 2.66634 10.4276 -16.906 -1.21108
lowerback 0.249748 0.722744 -0.243936
upperback -3.97001 0.941597 -0.284779
thorax -4.22485 0.468812 -0.193546
lowerneck -11.8513 1.41567 -0.502931
upperneck 42.1175 2.10758 -0.110798
head 17.4814 0.650519 0.375714
rclavicle -2.69602e-015 -1.11319e-014
rhumerus 12.3871 11.7771 -28.5056
rradius 114.352
rwrist -43.7234
rhand -3.45139 -42.5964
rfingers 7.12502
rthumb 22.2807 -71.332
lclavicle -2.69602e-015 -1.11319e-014
lhumerus 20.412 3.22434 23.4872
lradius 91.8054
lwrist 64.4819
lhand -24.4778 -29.7125
lfingers 7.12502
lthumb 2.01588 0.257737
rfemur -54.2338 -4.14708 14.7767
rtibia 34.6465
rfoot 36.2915 -5.54146
rtoes -0.242895
lfemur -26.1009 1.34676 -29.4476
ltibia 34.2683
lfoot -17.0666 10.5017
ltoes 10.8759
274
root 4.80069 17.0742 2.72587 9.37771 -17.8439 -1.57691
lowerback 0.634438 1.07618 0.441443
upperback -3.39959 1.43452 -0.302736
thorax -3.8323 0.693695 -0.615188
lowerneck -11.9753 1.37488 -0.556492
upperneck 42.0339 2.09082 -0.172911
head 17.466 0.628065 0.355088
rclavicle 5.25537e-015 8.54774e-015
rhumerus 12.295 11.9985 -28.7067
rradius 114.331
rwrist -43.465
rhand -3.61947 -42.5357
rfingers 7.12502
rthumb 22.1193 -71.2904
lclavicle 5.25537e-015 8.54774e-015
lhumerus 20.4081 3.04647 23.8218
lradius 92.0559
lwrist 64.3819
lhand -24.5755 -29.8598
lfingers 7.12502
lthumb 1.92154 0.111303
rfemur -52.9843 -3.43615 15.1419
rtibia 34.5679
rfoot 36.0138 -5.40343
rtoes 1.58915
lfemur -24.7236 1.85751 -29.2132
ltibia 34.3545
lfoot -17.4218 11.2331
ltoes 10.3708
275
root 4.79775 17.0599 2.70132 9.82056 -17.4135 -1.65144
lowerback 0.464524 0.942923 0.43646
upperback -3.54642 1.25745 -0.234681
thorax -3.89238 0.606008 -0.534003
lowerneck -11.9567 1.31951 -0.642146
upperneck 42.0738 2.01763 -0.144236
head 17.4828 0.587647 0.370771
rclavicle 1.70458e-014 1.98785e-015
rhumerus 12.1757 12.3291 -28.9054
rradius 114.273
rwrist -43.1841
rhand -3.93221 -42.379
rfingers 7.12502
rthumb 21.8191 -71.169
lclavicle 1.70458e-014 1.98785e-015
lhumerus 20.2932 2.72826 24.1158
lradius 92.5354
lwrist 64.2261
lhand -24.8413 -28.3422
lfingers 7.12502
lthumb 1.66485 1.63102
rfemur -53.5394 -3.41427 15.1387
rtibia 34.5731
rfoot 36.1397 -6.05749
rtoes 2.58596
lfemur -25.4687 1.53912 -29.0687
ltibia 34.6535
lfoot -17.3023 11.1269
ltoes 9.67453
276
root 4.79819 17.0443 2.68321 10.1072 -17.1469 -1.50748
lowerback 0.359009 0.819469 0.240509
upperback -3.66227 1.08676 -0.23214
thorax -3.95851 0.526726 -0.414697
lowerneck -11.9484 1.28725 -0.838691
upperneck 42.1568 1.93122 0.0781214
head 17.522 0.549232 0.49345
rclavicle -3.98191e-014 -8.74653e-015
rhumerus 12.1201 12.7566 -29.12
rradius 114.093
rwrist -42.8407
rhand -4.17815 -42.3293
rfingers 7.12502
rthumb 21.5829 -71.1466
lclavicle -3.98191e-014 -8.74653e-015
lhumerus 19.9583 2.37561 24.3632
lradius 92.9064
lwrist 63.9005
lhand -25.0407 -25.6932
lfingers 7.12502
lthumb 1.47222 4.28143
rfemur -53.9247 -3.39535 14.941
rtibia 34.4111
rfoot 36.4365 -6.49301
rtoes 3.13563
lfemur -25.9254 1.29639 -29.1926
ltibia 34.6735
lfoot -17.1392 11.0171
ltoes 9.44501
